<?xml version="1.0" encoding="UTF-8" standalone="no"?>
<svg
   xmlns:dc="http://purl.org/dc/elements/1.1/"
   xmlns:cc="http://creativecommons.org/ns#"
   xmlns:rdf="http://www.w3.org/1999/02/22-rdf-syntax-ns#"
   xmlns:svg="http://www.w3.org/2000/svg"
   xmlns="http://www.w3.org/2000/svg"
   xmlns:sodipodi="http://sodipodi.sourceforge.net/DTD/sodipodi-0.dtd"
   xmlns:inkscape="http://www.inkscape.org/namespaces/inkscape"
   fill="#000000"
   height="24"
   viewBox="0 0 24 24"
   width="24"
   id="svg2"
   version="1.1"
   inkscape:version="0.48.5 r10040"
   sodipodi:docname="ic_assignment_returned_black_24px.svg">
  <metadata
     id="metadata12">
    <rdf:RDF>
      <cc:Work
         rdf:about="">
        <dc:format>image/svg+xml</dc:format>
        <dc:type
           rdf:resource="http://purl.org/dc/dcmitype/StillImage" />
        <dc:title></dc:title>
      </cc:Work>
    </rdf:RDF>
  </metadata>
  <defs
     id="defs10" />
  <sodipodi:namedview
     pagecolor="#ffffff"
     bordercolor="#666666"
     borderopacity="1"
     objecttolerance="10"
     gridtolerance="10"
     guidetolerance="10"
     inkscape:pageopacity="0"
     inkscape:pageshadow="2"
     inkscape:window-width="1105"
     inkscape:window-height="727"
     id="namedview8"
     showgrid="false"
     showguides="true"
     inkscape:guide-bbox="true"
     inkscape:zoom="7.3334707"
     inkscape:cx="27.940024"
     inkscape:cy="23.532082"
     inkscape:window-x="293"
     inkscape:window-y="59"
     inkscape:window-maximized="0"
     inkscape:current-layer="svg2">
    <sodipodi:guide
       orientation="0,1"
       position="4.1943503,15"
       id="guide2991" />
    <sodipodi:guide
       orientation="0,1"
       position="7.9548023,6"
       id="guide2993" />
    <sodipodi:guide
       orientation="1,0"
       position="10,11"
       id="guide2997" />
    <sodipodi:guide
       orientation="1,0"
       position="14,13.113371"
       id="guide2999" />
    <sodipodi:guide
       orientation="1,0"
       position="7,10.268927"
       id="guide3003" />
    <sodipodi:guide
       orientation="1,0"
       position="17,10.654614"
       id="guide3005" />
    <sodipodi:guide
       orientation="1,0"
       position="12,7.1834275"
       id="guide3007" />
    <sodipodi:guide
       orientation="0,1"
       position="1.3258004,10"
       id="guide3009" />
  </sodipodi:namedview>
  <path
     d="M0 0h24v24H0z"
     fill="none"
     id="path4" />
  <path
     d="M 19,3 14.82,3 C 14.4,1.84 13.3,1 12,1 10.7,1 9.6,1.84 9.18,3 L 5,3 C 3.9,3 3,3.9 3,5 l 0,14 c 0,1.1 0.9,2 2,2 l 14,0 c 1.1,0 2,-0.9 2,-2 L 21,5 C 21,3.9 20.1,3 19,3 z m -7,0 c 0.55,0 1,0.45 1,1 0,0.55 -0.45,1 -1,1 -0.55,0 -1,-0.45 -1,-1 0,-0.55 0.45,-1 1,-1 z m -2,15 0,-4 -3,0 5,-5 5,5 -3,0 0,4 z"
     id="path6"
     inkscape:connector-curvature="0"
     sodipodi:nodetypes="scscssssssssssssscccccccc" />
</svg>
