<?xml version="1.0" encoding="UTF-8" standalone="no"?>
<svg
   xmlns:dc="http://purl.org/dc/elements/1.1/"
   xmlns:cc="http://creativecommons.org/ns#"
   xmlns:rdf="http://www.w3.org/1999/02/22-rdf-syntax-ns#"
   xmlns:svg="http://www.w3.org/2000/svg"
   xmlns="http://www.w3.org/2000/svg"
   xmlns:sodipodi="http://sodipodi.sourceforge.net/DTD/sodipodi-0.dtd"
   xmlns:inkscape="http://www.inkscape.org/namespaces/inkscape"
   width="24"
   height="24"
   viewBox="0 0 24 24"
   id="svg2"
   version="1.1"
   inkscape:version="0.48.5 r10040"
   sodipodi:docname="file_folder_open.svg">
  <metadata
     id="metadata12">
    <rdf:RDF>
      <cc:Work
         rdf:about="">
        <dc:format>image/svg+xml</dc:format>
        <dc:type
           rdf:resource="http://purl.org/dc/dcmitype/StillImage" />
        <dc:title></dc:title>
      </cc:Work>
    </rdf:RDF>
  </metadata>
  <defs
     id="defs10" />
  <sodipodi:namedview
     pagecolor="#ffffff"
     bordercolor="#666666"
     borderopacity="1"
     objecttolerance="10"
     gridtolerance="10"
     guidetolerance="10"
     inkscape:pageopacity="0"
     inkscape:pageshadow="2"
     inkscape:window-width="913"
     inkscape:window-height="627"
     id="namedview8"
     showgrid="false"
     inkscape:zoom="16.901042"
     inkscape:cx="12"
     inkscape:cy="12"
     inkscape:window-x="454"
     inkscape:window-y="123"
     inkscape:window-maximized="0"
     inkscape:current-layer="svg2" />
  <path
     d="M0 0h24v24h-24z"
     fill="none"
     id="path4" />
  <path
     d="M20 6h-8l-2-2h-6c-1.1 0-1.99.9-1.99 2l-.01 12c0 1.1.9 2 2 2h16c1.1 0 2-.9 2-2v-10c0-1.1-.9-2-2-2zm0 12h-16v-10h16v10z"
     id="path6" />
  <g
     id="g3064"
     transform="matrix(0.66666667,0,0,0.66666667,4,4.9999999)">
    <path
       id="path3054"
       d="M 3,13 H 5 V 11 H 3 v 2 z m 0,4 H 5 V 15 H 3 v 2 z M 3,9 H 5 V 7 H 3 v 2 z m 4,4 H 21 V 11 H 7 v 2 z m 0,4 H 21 V 15 H 7 v 2 z M 7,7 V 9 H 21 V 7 H 7 z"
       inkscape:connector-curvature="0" />
    <path
       id="path3056"
       d="M 0,0 H 24 V 24 H 0 z"
       inkscape:connector-curvature="0"
       style="fill:none" />
  </g>
</svg>
