<?xml version="1.0" encoding="UTF-8" standalone="no"?>
<svg
   xmlns:dc="http://purl.org/dc/elements/1.1/"
   xmlns:cc="http://creativecommons.org/ns#"
   xmlns:rdf="http://www.w3.org/1999/02/22-rdf-syntax-ns#"
   xmlns:svg="http://www.w3.org/2000/svg"
   xmlns="http://www.w3.org/2000/svg"
   xmlns:sodipodi="http://sodipodi.sourceforge.net/DTD/sodipodi-0.dtd"
   xmlns:inkscape="http://www.inkscape.org/namespaces/inkscape"
   height="512"
   viewBox="0 0 512 512"
   width="512"
   id="svg2"
   version="1.1"
   inkscape:version="0.48.5 r10040"
   sodipodi:docname="launcher.svg"
   style="fill:#000000">
  <metadata
     id="metadata12">
    <rdf:RDF>
      <cc:Work
         rdf:about="">
        <dc:format>image/svg+xml</dc:format>
        <dc:type
           rdf:resource="http://purl.org/dc/dcmitype/StillImage" />
        <dc:title></dc:title>
      </cc:Work>
    </rdf:RDF>
  </metadata>
  <defs
     id="defs10" />
  <sodipodi:namedview
     pagecolor="#ffffff"
     bordercolor="#666666"
     borderopacity="1"
     objecttolerance="10"
     gridtolerance="10"
     guidetolerance="10"
     inkscape:pageopacity="0"
     inkscape:pageshadow="2"
     inkscape:window-width="1212"
     inkscape:window-height="815"
     id="namedview8"
     showgrid="true"
     showguides="true"
     inkscape:guide-bbox="true"
     inkscape:zoom="1.0595703"
     inkscape:cx="211.44809"
     inkscape:cy="282.35918"
     inkscape:window-x="218"
     inkscape:window-y="16"
     inkscape:window-maximized="0"
     inkscape:current-layer="svg2"
     inkscape:snap-global="false">
    <inkscape:grid
       type="xygrid"
       id="grid3761"
       empspacing="5"
       visible="true"
       enabled="true"
       snapvisiblegridlinesonly="true" />
    <sodipodi:guide
       orientation="0,1"
       position="13.162879,256"
       id="guide3763" />
    <sodipodi:guide
       orientation="1,0"
       position="6.5,253.64777"
       id="guide3765" />
    <sodipodi:guide
       orientation="1,0"
       position="505.5,253.48037"
       id="guide3767" />
    <sodipodi:guide
       orientation="0,1"
       position="120,475"
       id="guide3769" />
    <sodipodi:guide
       orientation="0,1"
       position="111.42289,37"
       id="guide3771" />
    <sodipodi:guide
       orientation="1,0"
       position="131.5,35.32197"
       id="guide3773" />
    <sodipodi:guide
       orientation="1,0"
       position="380.5,35.807292"
       id="guide3775" />
    <sodipodi:guide
       orientation="1,0"
       position="256,290"
       id="guide3777" />
  </sodipodi:namedview>
  <path
     d="m 0,488 h 24 v 24 H 0 z"
     id="path4"
     inkscape:connector-curvature="0"
     style="fill:none" />
  <path
     style="fill:#33b5c4;stroke:none;stroke-width:1px;stroke-linecap:butt;stroke-linejoin:miter;stroke-opacity:1;fill-opacity:1"
     d="M 131.5,37 256,256 6.5,256 z"
     id="path3802"
     inkscape:connector-curvature="0" />
  <path
     style="fill:#d3ed6a;stroke:none;stroke-width:1px;stroke-linecap:butt;stroke-linejoin:miter;stroke-opacity:1;fill-opacity:1"
     d="m 131.5,37 249,0 L 256,256 z"
     id="path3804"
     inkscape:connector-curvature="0" />
  <path
     style="fill:#b1ce53;stroke:none;stroke-width:1px;stroke-linecap:butt;stroke-linejoin:miter;stroke-opacity:1;fill-opacity:1"
     d="m 380.5,37 125,219 -249.5,0 z"
     id="path3806"
     inkscape:connector-curvature="0" />
  <path
     style="fill:#b1ce53;stroke:none;stroke-width:1px;stroke-linecap:butt;stroke-linejoin:miter;stroke-opacity:1;fill-opacity:1"
     d="M 505.5,256 380.5,475 256,256 z"
     id="path3808"
     inkscape:connector-curvature="0" />
  <path
     style="fill:#2b98ae;stroke:none;stroke-width:1px;stroke-linecap:butt;stroke-linejoin:miter;stroke-opacity:1;fill-opacity:1"
     d="m 256,256 -124.5,219 249,0 z"
     id="path3810"
     inkscape:connector-curvature="0" />
  <path
     style="fill:#33b5c4;stroke:none;stroke-width:1px;stroke-linecap:butt;stroke-linejoin:miter;stroke-opacity:1;fill-opacity:1"
     d="M 131.5,475 6.5,256 256,256 z"
     id="path3812"
     inkscape:connector-curvature="0" />
  <g
     id="g3832"
     transform="matrix(2.5,0,0,2.5,-119,-1399)"
     style="fill:#ffffff;fill-opacity:1">
    <g
       transform="matrix(0.15713484,-0.15713484,0.15713484,0.15713484,-16.241896,629.62346)"
       id="g3828"
       style="fill:#ffffff;fill-opacity:1">
      <path
         style="fill:#ffffff;fill-opacity:1;stroke:none"
         d="m 690,582 c 5.54,0 10,4.46 10,10 l 0,80 c 0,5.54 -4.46,10 -10,10 -96.66667,0 -290,0 -290,0 l 0,-100 c 0,0 196.43112,0 290,0 z"
         id="rect3814"
         inkscape:connector-curvature="0"
         sodipodi:nodetypes="csscccc" />
      <path
         style="fill:#ffffff;fill-opacity:1;stroke:none"
         d="m 375,582 0,100 -80,-50 z"
         id="path3818"
         inkscape:connector-curvature="0"
         sodipodi:nodetypes="cccc" />
    </g>
    <path
       sodipodi:nodetypes="csssscccssssssc"
       inkscape:connector-curvature="0"
       id="rect3821"
       d="m 190,647 0,50 c 0,2.85649 -2.14351,5 -5,5 l -70,0 c -2.85649,0 -5,-2.14351 -5,-5 l 0,-75 c 25,0 30,0 55,0 l 10,-10 c 0,0 -40,0 -65,0 -7,0 -10,3 -10,10 0,25 0,75 0,75 0,8.22351 6.77649,15 15,15 l 70,0 c 8.22351,0 15,-6.77649 15,-15 l 0,-60"
       style="font-size:medium;font-style:normal;font-variant:normal;font-weight:normal;font-stretch:normal;text-indent:0;text-align:start;text-decoration:none;line-height:normal;letter-spacing:normal;word-spacing:normal;text-transform:none;direction:ltr;block-progression:tb;writing-mode:lr-tb;text-anchor:start;baseline-shift:baseline;color:#000000;fill:#ffffff;fill-opacity:1;stroke:none;stroke-width:10;marker:none;visibility:visible;display:inline;overflow:visible;enable-background:accumulate;font-family:Sans;-inkscape-font-specification:Sans" />
  </g>
</svg>
