<?xml version="1.0" encoding="UTF-8" standalone="no"?>
<svg
   xmlns:dc="http://purl.org/dc/elements/1.1/"
   xmlns:cc="http://creativecommons.org/ns#"
   xmlns:rdf="http://www.w3.org/1999/02/22-rdf-syntax-ns#"
   xmlns:svg="http://www.w3.org/2000/svg"
   xmlns="http://www.w3.org/2000/svg"
   xmlns:sodipodi="http://sodipodi.sourceforge.net/DTD/sodipodi-0.dtd"
   xmlns:inkscape="http://www.inkscape.org/namespaces/inkscape"
   height="512"
   viewBox="0 0 512 512"
   width="512"
   id="svg2"
   version="1.1"
   inkscape:version="0.48.5 r10040"
   sodipodi:docname="logo.svg"
   style="fill:#000000">
  <metadata
     id="metadata12">
    <rdf:RDF>
      <cc:Work
         rdf:about="">
        <dc:format>image/svg+xml</dc:format>
        <dc:type
           rdf:resource="http://purl.org/dc/dcmitype/StillImage" />
        <dc:title></dc:title>
      </cc:Work>
    </rdf:RDF>
  </metadata>
  <defs
     id="defs10" />
  <sodipodi:namedview
     pagecolor="#ffffff"
     bordercolor="#666666"
     borderopacity="1"
     objecttolerance="10"
     gridtolerance="10"
     guidetolerance="10"
     inkscape:pageopacity="0"
     inkscape:pageshadow="2"
     inkscape:window-width="1212"
     inkscape:window-height="815"
     id="namedview8"
     showgrid="true"
     showguides="true"
     inkscape:guide-bbox="true"
     inkscape:zoom="0.97968464"
     inkscape:cx="211.44809"
     inkscape:cy="282.35918"
     inkscape:window-x="218"
     inkscape:window-y="16"
     inkscape:window-maximized="0"
     inkscape:current-layer="svg2"
     inkscape:snap-global="false">
    <inkscape:grid
       type="xygrid"
       id="grid3761"
       empspacing="5"
       visible="true"
       enabled="true"
       snapvisiblegridlinesonly="true" />
    <sodipodi:guide
       orientation="0,1"
       position="13.162879,256"
       id="guide3763" />
    <sodipodi:guide
       orientation="1,0"
       position="6.5,253.64777"
       id="guide3765" />
    <sodipodi:guide
       orientation="1,0"
       position="505.5,253.48037"
       id="guide3767" />
    <sodipodi:guide
       orientation="0,1"
       position="120,475"
       id="guide3769" />
    <sodipodi:guide
       orientation="0,1"
       position="111.42289,37"
       id="guide3771" />
    <sodipodi:guide
       orientation="1,0"
       position="131.5,35.32197"
       id="guide3773" />
    <sodipodi:guide
       orientation="1,0"
       position="380.5,35.807292"
       id="guide3775" />
    <sodipodi:guide
       orientation="1,0"
       position="256,290"
       id="guide3777" />
  </sodipodi:namedview>
  <path
     d="m 0,488 h 24 v 24 H 0 z"
     id="path4"
     inkscape:connector-curvature="0"
     style="fill:none" />
  <path
     style="fill:#000000;fill-opacity:1;stroke:none"
     d="M 131.5 37 L 6.5 256 L 131.5 475 L 380.5 475 L 505.5 256 L 380.5 37 L 131.5 37 z M 156 131 L 318.5 131 L 293.5 156 L 156 156 L 156 343.5 C 156 350.64123 161.35878 356 168.5 356 L 343.5 356 C 350.64123 356 356 350.64123 356 343.5 L 356 218.5 L 381 193.5 L 381 343.5 C 381 364.05877 364.05878 381 343.5 381 L 168.5 381 C 147.94122 381 131 364.05877 131 343.5 L 131 156 C 131 138.5 138.5 131 156 131 z M 344 131 C 345.42011 131 346.84935 131.53684 347.9375 132.625 L 379.375 164.0625 C 381.55132 166.23882 381.55132 169.72994 379.375 171.90625 L 265.4375 285.84375 L 226.15625 246.5625 L 340.09375 132.625 C 341.18191 131.53684 342.57989 131 344 131 z M 216.34375 256.375 L 255.625 295.65625 L 204.5625 307.4375 L 216.34375 256.375 z "
     id="path3802" />
</svg>
